# xmcd
#
# Track frame offsets: 
#        150
#        4700
#        17695
#        36890
#        49760
#        64007
#        77762
#        90505
#        109212
#        125032
#        135200
#        150792
#        164752
#        175857
#        186895
#        198095
#
# Disc length: 2873 seconds
#
# Revision: 0
# Processed by: cddbd v1.5.2PL0 Copyright (c) Steve Scherf et al.
# Submitted via: ExactAudioCopy v0.99pb4
#
DISCID=c20b3710
DTITLE=Jeff Bright and The Sunshine Boys - Shes a Nail in My Heart
DYEAR=1999
DGENRE=Country
TTITLE0=Introduction
TTITLE1=Shes a Nail in My Heart
TTITLE2=(Youve Got Me) Dreaming Again
TTITLE3=Shouldnt You Be with Me
TTITLE4=There Could Be a Stranger
TTITLE5=One Shadow on the Wall
TTITLE6=Trouble Trouble Trouble
TTITLE7=Because Im Lazy
TTITLE8=Golden Tears
TTITLE9=Tarnished Angel
TTITLE10=Somewhere Someone Some Wine
TTITLE11=It Would Be Easy
TTITLE12=My Heart Skips a Beat
TTITLE13=Wake Up Sleepyhead
TTITLE14=Need to Tell Ya Honey
TTITLE15=Long Black Ribbon
EXTD=
EXTT0=
EXTT1=
EXTT2=
EXTT3=
EXTT4=
EXTT5=
EXTT6=
EXTT7=
EXTT8=
EXTT9=
EXTT10=
EXTT11=
EXTT12=
EXTT13=
EXTT14=
EXTT15=
PLAYORDER=
